<svg width="28" height="28" viewBox="0 0 28 28" fill="none" xmlns="http://www.w3.org/2000/svg">
<g clip-path="url(#clip0_1_19877)">
<path d="M14.4235 17.4382C14.4235 15.2822 13.398 13.6885 11.2793 13.0912C12.8252 12.355 13.6313 11.2397 13.6313 9.50483C13.6313 6.08417 11.074 5.25 8.1235 5.25H0V22.4245H8.351C11.4823 22.4245 14.4235 20.9277 14.4235 17.4382ZM3.787 8.18183H7.34067C8.70683 8.18183 9.9365 8.5645 9.9365 10.1442C9.9365 11.6025 8.97983 12.1893 7.6265 12.1893H3.787V8.18183ZM3.78583 19.5078V14.7782H7.9135C9.58067 14.7782 10.6353 15.4712 10.6353 17.2305C10.6353 18.9653 9.3765 19.5078 7.83533 19.5078H3.78583ZM21.9287 22.75C24.9083 22.75 26.838 21.4118 27.7667 18.5675H24.7427C24.4172 19.6292 23.0755 20.1903 22.0348 20.1903C20.027 20.1903 18.9723 19.0178 18.9723 17.0252H27.9708C28.2555 13.0375 26.0342 9.639 21.9275 9.639C18.1253 9.639 15.5447 12.488 15.5447 16.2202C15.5447 20.0935 17.99 22.75 21.9287 22.75ZM21.8213 12.2197C23.5422 12.2197 24.4078 13.2277 24.5525 14.8762H18.977C19.0902 13.2417 20.1787 12.2197 21.8213 12.2197ZM18.2782 6.15183H25.2642V7.8435H18.2782V6.15183Z" fill="white"/>
</g>
<defs>
<clipPath id="clip0_1_19877">
<rect width="28" height="28" fill="white"/>
</clipPath>
</defs>
</svg>
