<svg width="24" height="24" viewBox="0 0 24 24" fill="none" xmlns="http://www.w3.org/2000/svg">
<path d="M11.7347 20.5153L4.98469 13.7653C4.91432 13.6949 4.87479 13.5995 4.87479 13.5C4.87479 13.4005 4.91432 13.3051 4.98469 13.2347C5.05505 13.1643 5.15049 13.1248 5.25 13.1248C5.34951 13.1248 5.44494 13.1643 5.51531 13.2347L11.625 19.3444L11.625 3.75C11.625 3.65054 11.6645 3.55516 11.7348 3.48483C11.8052 3.41451 11.9005 3.375 12 3.375C12.0995 3.375 12.1948 3.41451 12.2652 3.48483C12.3355 3.55516 12.375 3.65054 12.375 3.75L12.375 19.3444L18.4847 13.2347C18.555 13.1643 18.6505 13.1248 18.75 13.1248C18.8495 13.1248 18.9449 13.1643 19.0153 13.2347C19.0857 13.3051 19.1252 13.4005 19.1252 13.5C19.1252 13.5995 19.0857 13.6949 19.0153 13.7653L12.2653 20.5153C12.2305 20.5502 12.1891 20.5778 12.1436 20.5967C12.0981 20.6156 12.0493 20.6253 12 20.6253C11.9507 20.6253 11.9019 20.6156 11.8564 20.5967C11.8109 20.5778 11.7695 20.5502 11.7347 20.5153Z" fill="white" fill-opacity="0.48"/>
</svg>
