<svg width="20" height="20" viewBox="0 0 20 20" fill="none" xmlns="http://www.w3.org/2000/svg">
<path d="M4.85333 3.02602L9.99999 8.17268L15.12 3.05268C15.2331 2.93231 15.3693 2.83601 15.5205 2.76957C15.6718 2.70312 15.8348 2.6679 16 2.66602C16.3536 2.66602 16.6928 2.80649 16.9428 3.05654C17.1929 3.30659 17.3333 3.64573 17.3333 3.99935C17.3364 4.16282 17.3061 4.3252 17.2442 4.47652C17.1823 4.62785 17.0901 4.76493 16.9733 4.87935L11.7867 9.99935L16.9733 15.186C17.1931 15.401 17.3219 15.6921 17.3333 15.9993C17.3333 16.353 17.1929 16.6921 16.9428 16.9422C16.6928 17.1922 16.3536 17.3327 16 17.3327C15.8301 17.3397 15.6605 17.3114 15.5022 17.2494C15.3438 17.1874 15.2 17.0932 15.08 16.9727L9.99999 11.826L4.86666 16.9593C4.754 17.0757 4.61941 17.1686 4.47066 17.2327C4.32191 17.2968 4.16195 17.3308 3.99999 17.3327C3.64637 17.3327 3.30723 17.1922 3.05718 16.9422C2.80714 16.6921 2.66666 16.353 2.66666 15.9993C2.66355 15.8359 2.69388 15.6735 2.75579 15.5222C2.81769 15.3708 2.90987 15.2338 3.02666 15.1193L8.21333 9.99935L3.02666 4.81268C2.80691 4.59769 2.67805 4.30657 2.66666 3.99935C2.66666 3.64573 2.80714 3.30659 3.05718 3.05654C3.30723 2.80649 3.64637 2.66602 3.99999 2.66602C4.31999 2.67002 4.62666 2.79935 4.85333 3.02602Z" fill="black"/>
</svg>
