<svg width="32" height="32" viewBox="0 0 32 32" fill="none" xmlns="http://www.w3.org/2000/svg">
<path d="M16.6667 2.66602H17.0303C21.3786 2.66602 23.5527 2.66602 25.0626 3.7298C25.4952 4.03459 25.8792 4.39605 26.2031 4.8032C27.3333 6.22424 27.3333 8.27049 27.3333 12.363V15.7569C27.3333 19.7078 27.3333 21.6833 26.7081 23.261C25.7029 25.7975 23.5772 27.7982 20.8822 28.7442C19.2058 29.3327 17.1069 29.3327 12.9091 29.3327C10.5103 29.3327 9.31095 29.3327 8.35304 28.9964C6.81306 28.4558 5.59833 27.3126 5.02395 25.8632C4.66667 24.9616 4.66667 23.8328 4.66667 21.5751V15.9993" stroke="white" stroke-width="2" stroke-linecap="round" stroke-linejoin="round"/>
<path d="M27.3333 16C27.3333 18.4546 25.3435 20.4444 22.8889 20.4444C22.0012 20.4444 20.9546 20.2889 20.0915 20.5202C19.3246 20.7256 18.7256 21.3246 18.5202 22.0915C18.2889 22.9546 18.4444 24.0012 18.4444 24.8889C18.4444 27.3435 16.4546 29.3333 14 29.3333" stroke="white" stroke-width="2" stroke-linecap="round" stroke-linejoin="round"/>
<path d="M6 9.9987C6.65537 10.673 8.3997 13.332 9.33333 13.332M12.6667 9.9987C12.0113 10.673 10.267 13.332 9.33333 13.332M9.33333 13.332L9.33333 2.66536" stroke="white" stroke-width="2" stroke-linecap="round" stroke-linejoin="round"/>
</svg>
