<svg width="28" height="28" viewBox="0 0 28 28" fill="none" xmlns="http://www.w3.org/2000/svg">
<g clip-path="url(#clip0_1_19883)">
<path d="M21 0H7C3.15034 0 0 3.14897 0 7V21C0 24.8497 3.15034 28 7 28H21C24.8497 28 28 24.8497 28 21V7C28 3.14897 24.8497 0 21 0ZM14 19.8331C10.7779 19.8331 8.16655 17.2207 8.16655 14C8.16655 10.7779 10.7779 8.16655 14 8.16655C17.2207 8.16655 19.8334 10.7779 19.8334 14C19.8334 17.2207 17.2207 19.8331 14 19.8331ZM21.5834 8.16655C20.616 8.16655 19.8334 7.38288 19.8334 6.41655C19.8334 5.45022 20.616 4.66655 21.5834 4.66655C22.5509 4.66655 23.3334 5.45022 23.3334 6.41655C23.3334 7.38288 22.5509 8.16655 21.5834 8.16655Z" fill="white"/>
</g>
<defs>
<clipPath id="clip0_1_19883">
<rect width="28" height="28" fill="white"/>
</clipPath>
</defs>
</svg>
