<svg width="28" height="28" viewBox="0 0 28 28" fill="none" xmlns="http://www.w3.org/2000/svg">
<g clip-path="url(#clip0_1_19880)">
<path d="M27.993 28L28 27.9988V17.7298C28 12.7062 26.9185 8.83633 21.0455 8.83633C18.2222 8.83633 16.3275 10.3857 15.554 11.8545H15.4723V9.30533H9.90383V27.9988H15.7022V18.7425C15.7022 16.3053 16.1642 13.9487 19.1823 13.9487C22.1562 13.9487 22.2005 16.73 22.2005 18.8988V28H27.993ZM0.462 9.3065H6.26733V28H0.462V9.3065ZM3.36233 0C1.50617 0 0 1.50617 0 3.36233C0 5.2185 1.50617 6.75617 3.36233 6.75617C5.2185 6.75617 6.72467 5.2185 6.72467 3.36233C6.72405 2.47078 6.36961 1.61591 5.73918 0.985487C5.10875 0.355061 4.25389 0.000618064 3.36233 0Z" fill="white"/>
</g>
<defs>
<clipPath id="clip0_1_19880">
<rect width="28" height="28" fill="white"/>
</clipPath>
</defs>
</svg>
