<svg width="41" height="46" viewBox="0 0 41 46" fill="none" xmlns="http://www.w3.org/2000/svg">
<path fill-rule="evenodd" clip-rule="evenodd" d="M34.9001 17.9429V35.5138H28.37L32.278 39.7552L39.4012 35.6711C40.6321 34.8376 40.9641 33.9384 40.9999 32.629V23.0007V13.0799C40.971 12.6983 40.9086 12.3667 40.8118 12.0723L34.9001 17.9429Z" fill="white"/>
<path fill-rule="evenodd" clip-rule="evenodd" d="M27.6993 10.4865L34.8997 17.6369L40.8114 12.0712C40.5346 11.2269 39.9792 10.6913 39.1459 10.1832L30.7494 5.36899L22.098 0.408703C20.7555 -0.233331 19.8057 -0.0690199 18.6459 0.554818L9.17566 5.98468L13.4468 10.2261L27.6993 25.0928V10.4865Z" fill="#FFF1F1"/>
<path d="M6.09961 28.0581V10.4872H12.9929L8.72143 6.24609L1.59847 10.33C0.367826 11.1635 0.0358254 12.0627 0 13.372V23.0006V32.9215C0.028715 33.3028 0.0916147 33.6347 0.188152 33.9291L6.09961 28.0581Z" fill="white"/>
<path fill-rule="evenodd" clip-rule="evenodd" d="M13.3009 20.9082V35.5142L6.10058 28.3698L0.188843 33.9295C0.465601 34.7739 1.02103 35.3094 1.85431 35.8176L10.2509 40.6317L18.9023 45.592C20.2448 46.2341 21.1948 46.0697 22.3544 45.4459L30.7509 40.6315L32.2791 39.7553L28.0082 35.5139L13.3009 20.9082Z" fill="#FFF1F1"/>
</svg>
