<svg width="32" height="32" viewBox="0 0 32 32" fill="none" xmlns="http://www.w3.org/2000/svg">
<path d="M2.66667 8L11.884 13.2226C15.2821 15.148 16.7179 15.148 20.116 13.2226L29.3333 8" stroke="white" stroke-width="2" stroke-linejoin="round"/>
<path d="M2.68769 17.9668C2.77485 22.0542 2.81844 24.0979 4.32661 25.6118C5.83478 27.1257 7.93377 27.1785 12.1318 27.2839C14.7191 27.3489 17.2809 27.3489 19.8682 27.2839C24.0662 27.1785 26.1652 27.1257 27.6734 25.6118C29.1816 24.0979 29.2252 22.0542 29.3123 17.9668C29.3403 16.6526 29.3403 15.3461 29.3123 14.0319C29.2252 9.9445 29.1816 7.90081 27.6734 6.3869C26.1652 4.87299 24.0662 4.82025 19.8682 4.71477C17.2809 4.64977 14.7191 4.64976 12.1318 4.71477C7.93377 4.82023 5.83477 4.87297 4.3266 6.38688C2.81843 7.90079 2.77485 9.94448 2.68768 14.0319C2.65966 15.3461 2.65966 16.6526 2.68769 17.9668Z" stroke="white" stroke-width="2" stroke-linejoin="round"/>
</svg>
