<svg width="28" height="28" viewBox="0 0 28 28" fill="none" xmlns="http://www.w3.org/2000/svg">
<path d="M15.7935 15.1658C15.7935 19.557 12.258 23.1168 7.89677 23.1168C3.53549 23.1168 0 19.557 0 15.1658C0 10.7746 3.53549 7.21484 7.89677 7.21484C12.258 7.21484 15.7935 10.7746 15.7935 15.1658ZM24.4565 15.1658C24.4565 19.2994 22.6887 22.6502 20.5081 22.6502C18.3275 22.6502 16.5597 19.2994 16.5597 15.1658C16.5597 11.0323 18.3275 7.68138 20.5081 7.68138C22.6888 7.68138 24.4565 11.0323 24.4565 15.1658ZM28 15.1658C28 18.8693 27.3783 21.8715 26.6113 21.8715C25.8443 21.8715 25.2227 18.8693 25.2227 15.1658C25.2227 11.4623 25.8443 8.46008 26.6113 8.46008C27.3783 8.46008 28 11.4623 28 15.1658Z" fill="white"/>
</svg>
