<svg width="25" height="25" viewBox="0 0 25 25" fill="none" xmlns="http://www.w3.org/2000/svg">
<g clip-path="url(#clip0_1_19850)">
<path d="M6.24805 5C6.24805 4.30967 6.80771 3.75 7.49805 3.75H23.748C24.4384 3.75 24.998 4.30967 24.998 5C24.998 5.69033 24.4384 6.25 23.748 6.25H7.49805C6.80771 6.25 6.24805 5.69028 6.24805 5ZM23.748 11.25H1.24805C0.557715 11.25 -0.00195312 11.8097 -0.00195312 12.5C-0.00195312 13.1903 0.557715 13.75 1.24805 13.75H23.748C24.4384 13.75 24.998 13.1903 24.998 12.5C24.998 11.8097 24.4384 11.25 23.748 11.25ZM23.748 18.75H12.498C11.8078 18.75 11.248 19.3097 11.248 20C11.248 20.6903 11.8078 21.25 12.498 21.25H23.748C24.4384 21.25 24.998 20.6903 24.998 20C24.998 19.3097 24.4384 18.75 23.748 18.75Z" fill="black"/>
</g>
<defs>
<clipPath id="clip0_1_19850">
<rect width="25" height="25" fill="white" transform="translate(-0.00195312)"/>
</clipPath>
</defs>
</svg>
