<svg width="24" height="24" viewBox="0 0 24 24" fill="none" xmlns="http://www.w3.org/2000/svg">
<path d="M11.7347 3.48469L4.98469 10.2347C4.91432 10.3051 4.87479 10.4005 4.87479 10.5C4.87479 10.5995 4.91432 10.6949 4.98469 10.7653C5.05505 10.8357 5.15049 10.8752 5.25 10.8752C5.34951 10.8752 5.44495 10.8357 5.51531 10.7653L11.625 4.65563L11.625 20.25C11.625 20.3495 11.6645 20.4448 11.7348 20.5152C11.8052 20.5855 11.9005 20.625 12 20.625C12.0995 20.625 12.1948 20.5855 12.2652 20.5152C12.3355 20.4448 12.375 20.3495 12.375 20.25L12.375 4.65563L18.4847 10.7653C18.5551 10.8357 18.6505 10.8752 18.75 10.8752C18.8495 10.8752 18.9449 10.8357 19.0153 10.7653C19.0857 10.6949 19.1252 10.5995 19.1252 10.5C19.1252 10.4005 19.0857 10.3051 19.0153 10.2347L12.2653 3.48469C12.2305 3.44982 12.1891 3.42216 12.1436 3.40329C12.0981 3.38442 12.0493 3.37471 12 3.37471C11.9507 3.37471 11.9019 3.38442 11.8564 3.40329C11.8109 3.42216 11.7695 3.44982 11.7347 3.48469Z" fill="white" fill-opacity="0.48"/>
</svg>
